<mxfile host="app.diagrams.net" modified="2024-06-23T12:16:29.549Z" agent="Mozilla/5.0 (Windows NT 10.0; Win64; x64) AppleWebKit/537.36 (KHTML, like Gecko) Chrome/126.0.0.0 Safari/537.36" version="24.6.2" etag="4cTd6lmdbp-75ZeGZEaM" type="github">
  <diagram name="Sayfa -1" id="DBx9Ys4kjoAX4-LkSsw-">
    <mxGraphModel>
      <root>
        <mxCell id="0" />
        <mxCell id="1" parent="0" />
      </root>
    </mxGraphModel>
  </diagram>
</mxfile>
